<?xml version="1.0" standalone="no"?><!DOCTYPE svg PUBLIC "-//W3C//DTD SVG 1.1//EN" "http://www.w3.org/Graphics/SVG/1.1/DTD/svg11.dtd"><svg t="1646878821889" class="icon" viewBox="0 0 1024 1024" version="1.1" xmlns="http://www.w3.org/2000/svg" p-id="968" data-spm-anchor-id="a313x.7781069.0.i10" width="32" height="32" xmlns:xlink="http://www.w3.org/1999/xlink"><defs><style type="text/css"></style></defs><path d="M920.576 175.104h-45.568v-43.008c0-15.36-12.8-28.16-28.16-28.16h-23.552c-15.36 0-28.16 12.8-28.16 28.16v43.008H253.44v-43.008c0-15.36-12.8-28.16-28.16-28.16h-23.552c-15.36 0-28.16 12.8-28.16 28.16v43.008H104.448c-25.088 0-46.08 20.48-46.08 46.08v575.488c0 25.088 20.48 46.08 46.08 46.08h68.608v48.64c0 15.36 12.8 28.16 28.16 28.16h23.552c15.36 0 28.16-12.8 28.16-28.16v-48.64h541.184v48.64c0 15.36 12.8 28.16 28.16 28.16h23.552c15.36 0 28.16-12.8 28.16-28.16v-48.64h45.568c25.088 0 46.08-20.48 46.08-46.08V221.184c1.024-25.6-19.968-46.08-45.056-46.08zM139.264 782.848c0 11.776-9.216 20.992-20.992 20.992s-20.992-9.216-20.992-20.992 9.216-20.992 20.992-20.992 20.992 9.216 20.992 20.992z m0-275.968c0 11.776-9.216 20.992-20.992 20.992S97.28 518.656 97.28 506.88s9.216-20.992 20.992-20.992 20.992 9.216 20.992 20.992z m0-266.24c0 11.776-9.216 20.992-20.992 20.992C106.496 261.12 97.28 251.904 97.28 240.64c0-11.776 9.216-20.992 20.992-20.992s20.992 9.216 20.992 20.992zM491.52 240.64c0-11.776 9.216-20.992 20.992-20.992h0.512c11.776 0 20.992 9.216 20.992 20.992s-9.216 20.992-20.992 20.992h-0.512C500.736 261.12 491.52 251.904 491.52 240.64z m41.984 542.208c0 11.776-9.216 20.992-20.992 20.992s-20.992-9.216-20.992-20.992 9.216-20.992 20.992-20.992h0.512c11.264 0 20.48 9.216 20.48 20.992z m319.488-172.544c0 9.728-8.192 17.408-17.92 17.408h-645.12c-9.728 0-17.92-7.68-17.92-17.408V316.416c0-9.728 8.192-17.408 17.92-17.408h645.12c9.728 0 17.92 7.68 17.92 17.408v293.888z m74.752 172.544c0 11.776-9.216 20.992-20.992 20.992s-20.992-9.216-20.992-20.992 9.216-20.992 20.992-20.992h0.512c11.264 0 20.48 9.216 20.48 20.992z m0-275.968c0 11.776-9.216 20.992-20.992 20.992s-20.992-9.216-20.992-20.992 9.216-20.992 20.992-20.992h0.512c11.264 0 20.48 9.216 20.48 20.992z m0-266.24c0 11.776-9.216 20.992-20.992 20.992S885.76 252.416 885.76 240.64s9.216-20.992 20.992-20.992h0.512c11.264 0 20.48 9.216 20.48 20.992z" fill="#0c5770" p-id="969" data-spm-anchor-id="a313x.7781069.0.i8" class="selected"></path><path d="M234.496 348.672h221.696v48.128H234.496zM234.496 440.832h221.696v48.128H234.496zM234.496 535.04h568.32v46.08h-568.32zM527.872 496.64c-5.12 0-10.24-2.048-13.824-5.632-8.192-7.68-8.704-20.48-1.024-29.184l71.68-76.8c3.584-4.096 8.704-6.144 14.336-6.656 5.632 0 10.752 2.048 14.848 5.632L680.96 446.976l93.696-97.792c7.68-8.192 20.992-8.704 29.184-0.512 8.192 7.68 8.704 20.992 0.512 29.184l-107.52 112.64c-7.68 8.192-20.48 8.704-28.672 1.024l-67.072-62.976-58.368 61.44c-4.096 4.096-9.216 6.656-14.848 6.656z" fill="#d81e06" p-id="970" data-spm-anchor-id="a313x.7781069.0.i11" class=""></path></svg>